<svg width="24" height="24" viewBox="0 0 24 24" fill="currentColor" xmlns="http://www.w3.org/2000/svg">
<mask id="mask0" mask-type="alpha" maskUnits="userSpaceOnUse" x="2" y="3" width="20" height="18">
<path fill-rule="evenodd" clip-rule="evenodd" d="M17.0005 12.0002L20.2405 10.3102C20.7205 10.0468 21.0189 9.54276 21.0189 8.99521C21.0189 8.44767 20.7205 7.94364 20.2405 7.68021L12.7305 3.26021C12.2824 3.01287 11.7387 3.01287 11.2905 3.26021L3.77054 7.69021C3.29053 7.95364 2.99219 8.45767 2.99219 9.00521C2.99219 9.55275 3.29053 10.0568 3.77054 10.3202L7.00054 12.0002L3.77054 13.6902C3.29053 13.9536 2.99219 14.4577 2.99219 15.0052C2.99219 15.5528 3.29053 16.0568 3.77054 16.3202L11.2505 20.7402C11.477 20.8655 11.7317 20.9309 11.9905 20.9302C12.2354 20.9311 12.4765 20.8692 12.6905 20.7502L20.2105 16.3102C20.6905 16.0468 20.9889 15.5428 20.9889 14.9952C20.9889 14.4477 20.6905 13.9436 20.2105 13.6802L17.0005 12.0002ZM12.0005 5.14021L19.0005 8.99521L12.0005 12.8602L5.00054 8.99521L12.0005 5.14021ZM5.00054 15.0002L12.0005 18.8702L19.0005 15.0002L14.8205 13.1302L12.7005 14.7502C12.4865 14.8692 12.2454 14.9311 12.0005 14.9302C11.7417 14.9309 11.487 14.8655 11.2605 14.7402L9.17054 13.1302L5.00054 15.0002Z" fill="white"/>
</mask>
<g mask="url(#mask0)">
<rect x="-48" y="-48" width="120" height="120"/>
</g>
</svg>
