<svg width="24" height="24" viewBox="0 0 24 24" fill="currentColor" xmlns="http://www.w3.org/2000/svg">
<mask id="mask0" mask-type="alpha" maskUnits="userSpaceOnUse" x="4" y="4" width="16" height="16">
<path fill-rule="evenodd" clip-rule="evenodd" d="M4 5C4 4.44772 4.44772 4 5 4H10C10.5523 4 11 4.44772 11 5V10C11 10.5523 10.5523 11 10 11H5C4.44772 11 4 10.5523 4 10V5ZM5.5 5.5H9.5V9.5H5.5V5.5ZM13 5C13 4.44772 13.4477 4 14 4H19C19.5523 4 20 4.44772 20 5V10C20 10.5523 19.5523 11 19 11H14C13.4477 11 13 10.5523 13 10V5ZM14.5 5.5H18.5V9.5H14.5V5.5ZM14 13C13.4477 13 13 13.4477 13 14V19C13 19.5523 13.4477 20 14 20H19C19.5523 20 20 19.5523 20 19V14C20 13.4477 19.5523 13 19 13H14ZM18.5 14.5H14.5V18.5H18.5V14.5ZM4 14C4 13.4477 4.44772 13 5 13H10C10.5523 13 11 13.4477 11 14V19C11 19.5523 10.5523 20 10 20H5C4.44772 20 4 19.5523 4 19V14ZM5.5 14.5H9.5V18.5H5.5V14.5Z" fill="white"/>
</mask>
<g mask="url(#mask0)">
<rect x="-48" y="-48" width="120" height="120"/>
</g>
</svg>
