<svg width="24" height="24" viewBox="0 0 24 24" fill="currentColor" xmlns="http://www.w3.org/2000/svg">
<mask id="mask0" mask-type="alpha" maskUnits="userSpaceOnUse" x="3" y="5" width="18" height="14">
<path fill-rule="evenodd" clip-rule="evenodd" d="M3 6C3 5.44772 3.44772 5 4 5H20C20.5523 5 21 5.44772 21 6V18C21 18.5523 20.5523 19 20 19H4C3.44772 19 3 18.5523 3 18V6ZM9.5 6.5H19.5V17.5H9.5V6.5ZM8 6.5H4.5V17.5H8V6.5ZM12 10C12 9.58579 12.3358 9.25 12.75 9.25H15.75C16.1642 9.25 16.5 9.58579 16.5 10C16.5 10.4142 16.1642 10.75 15.75 10.75H12.75C12.3358 10.75 12 10.4142 12 10ZM12 13.25C11.5858 13.25 11.25 13.5858 11.25 14C11.25 14.4142 11.5858 14.75 12 14.75H16C16.4142 14.75 16.75 14.4142 16.75 14C16.75 13.5858 16.4142 13.25 16 13.25H12Z" fill="white"/>
</mask>
<g mask="url(#mask0)">
<rect x="-48" y="-48" width="120" height="120" />
</g>
</svg>
