<svg width="24" height="24" viewBox="0 0 24 24" fill="currentColor" xmlns="http://www.w3.org/2000/svg">
<mask id="mask0" mask-type="alpha" maskUnits="userSpaceOnUse" x="3" y="4" width="18" height="16">
<path fill-rule="evenodd" clip-rule="evenodd" d="M8 5C8 4.44772 8.44772 4 9 4H20C20.5523 4 21 4.44772 21 5V16C21 16.5523 20.5523 17 20 17H16V19C16 19.5523 15.5523 20 15 20H4C3.44772 20 3 19.5523 3 19V8C3 7.44772 3.44772 7 4 7H8V5ZM8 8.5H4.5V18.5H14.5V17H9C8.44772 17 8 16.5523 8 16V8.5ZM14.5 15.5H9.5V8.5H14.5V15.5ZM16 15.5V8C16 7.44772 15.5523 7 15 7H9.5V5.5H19.5V15.5H16Z" fill="white"/>
</mask>
<g mask="url(#mask0)">
<rect x="-48" y="-48" width="120" height="120"/>
</g>
</svg>
