<svg width="24" height="24" viewBox="0 0 24 24" fill="currentColor" xmlns="http://www.w3.org/2000/svg">
<mask id="mask0" mask-type="alpha" maskUnits="userSpaceOnUse" x="4" y="4" width="16" height="16">
<path fill-rule="evenodd" clip-rule="evenodd" d="M6.57453 4.48212C6.89184 4.21587 7.36491 4.25726 7.63116 4.57457L12.0027 9.78431L16.3741 4.57457C16.6404 4.25726 17.1135 4.21587 17.4308 4.48212C17.7481 4.74838 17.7895 5.22144 17.5232 5.53875L12.9817 10.9511L14.9883 13.3424C15.4459 13.123 15.9586 13 16.5 13C18.433 13 20 14.567 20 16.5C20 18.433 18.433 20 16.5 20C14.567 20 13 18.433 13 16.5C13 15.6509 13.3024 14.8724 13.8054 14.2663L12.0027 12.1179L10.1973 14.2695C10.6987 14.8751 11 15.6524 11 16.5C11 18.433 9.433 20 7.5 20C5.567 20 4 18.433 4 16.5C4 14.567 5.567 13 7.5 13C8.04291 13 8.55694 13.1236 9.0155 13.3443L11.0236 10.9511L6.48209 5.53875C6.21584 5.22144 6.25723 4.74838 6.57453 4.48212ZM7.5 18.5C8.60457 18.5 9.5 17.6046 9.5 16.5C9.5 15.3955 8.60457 14.5 7.5 14.5C6.39543 14.5 5.5 15.3955 5.5 16.5C5.5 17.6046 6.39543 18.5 7.5 18.5ZM16.5 18.5C17.6046 18.5 18.5 17.6046 18.5 16.5C18.5 15.3955 17.6046 14.5 16.5 14.5C15.3954 14.5 14.5 15.3955 14.5 16.5C14.5 17.6046 15.3954 18.5 16.5 18.5Z" fill="white"/>
</mask>
<g mask="url(#mask0)">
<rect x="-48" y="-48" width="120" height="120"/>
</g>
</svg>
