<svg width="24" height="24" viewBox="0 0 24 24" fill="none" xmlns="http://www.w3.org/2000/svg">
<mask id="mask0" mask-type="alpha" maskUnits="userSpaceOnUse" x="3" y="3" width="18" height="19">
<path fill-rule="evenodd" clip-rule="evenodd" d="M21 4V12C21 12.5523 20.5523 13 20 13H13.28C13.1005 13.0001 12.9244 13.0484 12.77 13.14L9.51 15.09C9.20094 15.2732 8.81732 15.2766 8.5051 15.0988C8.19288 14.921 8.00006 14.5893 8 14.23V4C8 3.44772 8.44772 3 9 3H20C20.5523 3 21 3.44772 21 4ZM17 16V20.23C16.9999 20.5893 16.8071 20.921 16.4949 21.0988C16.1827 21.2766 15.7991 21.2732 15.49 21.09L12.24 19.14C12.0856 19.0484 11.9095 19.0001 11.73 19H4C3.44772 19 3 18.5523 3 18V10C3 9.44772 3.44772 9 4 9H5C5.55228 9 6 9.44772 6 10C6 10.5523 5.55228 11 5 11V17H11.72C12.2628 17.0014 12.795 17.15 13.26 17.43L14.99 18.43V16C14.99 15.4477 15.4377 15 15.99 15C16.5423 15 16.99 15.4477 16.99 16H17ZM10 5H19V11H13.28C12.73 11.0116 12.1938 11.1742 11.73 11.47L10 12.47V5Z" fill="white"/>
</mask>
<g mask="url(#mask0)">
<rect x="-48" y="-48" width="120" height="120" fill="#999999"/>
</g>
</svg>
