<svg width="24" height="24" viewBox="0 0 24 24" fill="currentColor" xmlns="http://www.w3.org/2000/svg">
<path d="M0 0H24V24H0V0Z" fill="none"/>
<path fill-rule="evenodd" clip-rule="evenodd" d="M8.78571 2C9.1432 2 9.4735 2.19083 9.65205 2.50054L16.4378 14.2707C16.6161 14.5801 16.616 14.9611 16.4373 15.2704C16.2586 15.5796 15.9286 15.7701 15.5714 15.7701H2C1.64285 15.7701 1.3128 15.5796 1.13413 15.2704C0.955457 14.9611 0.955279 14.5801 1.13366 14.2707L7.91938 2.50054C8.09793 2.19083 8.42823 2 8.78571 2ZM3.73081 13.7701H13.8406L8.78571 5.00216L3.73081 13.7701Z"/>
<path fill-rule="evenodd" clip-rule="evenodd" d="M16.3337 9.58945C15.1456 9.42702 13.9368 9.64881 12.8953 10.2175L11.9368 8.46219C13.3561 7.68715 14.9961 7.38799 16.6046 7.60788C18.2133 7.82779 19.7074 8.55558 20.8543 9.68493C22.0018 10.8148 22.7378 12.2841 22.9421 13.8679C23.1464 15.4518 22.8064 17.055 21.9785 18.4286C21.1509 19.8016 19.8837 20.8662 18.3779 21.4642C16.8724 22.0622 15.2074 22.1626 13.6384 21.751C12.0692 21.3394 10.6776 20.4369 9.68206 19.1763C8.68608 17.9152 8.14319 16.3669 8.14285 14.7703L10.1428 14.7699C10.1431 15.911 10.5308 17.024 11.2516 17.9368C11.9729 18.8501 12.9888 19.513 14.1459 19.8165C15.3032 20.12 16.5316 20.0455 17.6397 19.6055C18.7473 19.1656 19.6683 18.3869 20.2656 17.3961C20.8624 16.4059 21.1046 15.2563 20.9585 14.1237C20.8124 12.9909 20.285 11.9312 19.4511 11.11C18.6166 10.2884 17.5218 9.75186 16.3337 9.58945Z"/>
</svg>
