<svg width="24" height="24" viewBox="0 0 24 24" fill="currentColor" xmlns="http://www.w3.org/2000/svg">
<mask id="mask0" mask-type="alpha" maskUnits="userSpaceOnUse" x="3" y="2" width="18" height="20">
<path fill-rule="evenodd" clip-rule="evenodd" d="M10 4.28988C7.10851 5.15043 5 7.82898 5 11V17.0039H4C3.44772 17.0039 3 17.4516 3 18.0039V19H5H19H21V18C21 17.4477 20.5523 17 20 17H19V11C19 7.82898 16.8915 5.15043 14 4.28988V4C14 2.89543 13.1046 2 12 2C10.8954 2 10 2.89543 10 4V4.28988ZM12 22C13.1046 22 14 21.1046 14 20H10C10 21.1046 10.8954 22 12 22ZM17 17H7V11C7 8.23858 9.23858 6 12 6C14.7614 6 17 8.23858 17 11V17Z"/>
</mask>
<g mask="url(#mask0)">
<rect x="-48" y="-48" width="120" height="120"/>
</g>
</svg>
