<svg width="24" height="24" viewBox="0 0 24 24" fill="currentColor" xmlns="http://www.w3.org/2000/svg">
<mask id="mask0" mask-type="alpha" maskUnits="userSpaceOnUse" x="3" y="2" width="19" height="21">
<path fill-rule="evenodd" clip-rule="evenodd" d="M11.5965 11.9157L3.59655 7.91568C3.23397 7.75581 3 7.39694 3 7.00068C3 6.60443 3.23397 6.24555 3.59655 6.08568L11.5965 2.08568C11.8545 1.97144 12.1486 1.97144 12.4065 2.08568L20.4065 6.08568C20.7691 6.24555 21.0031 6.60443 21.0031 7.00068C21.0031 7.39694 20.7691 7.75581 20.4065 7.91568L12.4065 11.9157C12.1486 12.0299 11.8545 12.0299 11.5965 11.9157ZM17.5465 7.00568L12.0065 4.09568L6.46655 7.00568L12.0065 9.91568L17.5465 7.00568ZM20.9165 11.5957C21.0241 11.8383 21.0308 12.1138 20.9352 12.3614C20.8395 12.609 20.6493 12.8084 20.4065 12.9157L12.4065 16.9157C12.1486 17.0299 11.8545 17.0299 11.5965 16.9157L3.59655 12.9157C3.26965 12.771 3.04477 12.4629 3.00663 12.1074C2.96849 11.752 3.12288 11.4032 3.41163 11.1924C3.70039 10.9817 4.07965 10.941 4.40655 11.0857L12.0065 14.9157L19.5965 11.0957C20.0992 10.8704 20.6893 11.0939 20.9165 11.5957ZM20.9352 17.3614C21.0308 17.1138 21.0241 16.8383 20.9165 16.5957C20.6893 16.0939 20.0992 15.8704 19.5965 16.0957L12.0065 19.9157L4.40655 16.0857C3.90121 15.862 3.31022 16.0903 3.08655 16.5957C2.86287 17.101 3.09121 17.692 3.59655 17.9157L11.5965 21.9157C11.8545 22.0299 12.1486 22.0299 12.4065 21.9157L20.4065 17.9157C20.6493 17.8084 20.8395 17.609 20.9352 17.3614Z" fill="white"/>
</mask>
<g mask="url(#mask0)">
<rect x="-48" y="-48" width="120" height="120" />
</g>
</svg>
