<svg width="24" height="24" viewBox="0 0 24 24" fill="currentColor" xmlns="http://www.w3.org/2000/svg">
<path fill-rule="evenodd" clip-rule="evenodd" d="M3.59655 9.91568L11.5965 13.9157C11.8545 14.0299 12.1486 14.0299 12.4065 13.9157L20.4065 9.91568C20.7691 9.75581 21.0031 9.39694 21.0031 9.00068C21.0031 8.60443 20.7691 8.24555 20.4065 8.08568L12.4065 4.08568C12.1486 3.97144 11.8545 3.97144 11.5965 4.08568L3.59655 8.08568C3.23397 8.24555 3 8.60443 3 9.00068C3 9.39694 3.23397 9.75581 3.59655 9.91568ZM12.0065 6.09568L17.5465 9.00568L12.0065 11.9157L6.46655 9.00568L12.0065 6.09568ZM20.9352 15.3614C21.0308 15.1138 21.0241 14.8383 20.9165 14.5957C20.6893 14.0939 20.0992 13.8704 19.5965 14.0957L12.0065 17.9157L4.40655 14.0857C4.07965 13.941 3.70039 13.9817 3.41163 14.1924C3.12288 14.4032 2.96849 14.752 3.00663 15.1074C3.04477 15.4629 3.26965 15.771 3.59655 15.9157L11.5965 19.9157C11.8545 20.0299 12.1486 20.0299 12.4065 19.9157L20.4065 15.9157C20.6493 15.8084 20.8395 15.609 20.9352 15.3614Z"/>
<mask id="mask0" mask-type="alpha" maskUnits="userSpaceOnUse" x="3" y="4" width="19" height="17">
<path fill-rule="evenodd" clip-rule="evenodd" d="M3.59655 9.91568L11.5965 13.9157C11.8545 14.0299 12.1486 14.0299 12.4065 13.9157L20.4065 9.91568C20.7691 9.75581 21.0031 9.39694 21.0031 9.00068C21.0031 8.60443 20.7691 8.24555 20.4065 8.08568L12.4065 4.08568C12.1486 3.97144 11.8545 3.97144 11.5965 4.08568L3.59655 8.08568C3.23397 8.24555 3 8.60443 3 9.00068C3 9.39694 3.23397 9.75581 3.59655 9.91568ZM12.0065 6.09568L17.5465 9.00568L12.0065 11.9157L6.46655 9.00568L12.0065 6.09568ZM20.9352 15.3614C21.0308 15.1138 21.0241 14.8383 20.9165 14.5957C20.6893 14.0939 20.0992 13.8704 19.5965 14.0957L12.0065 17.9157L4.40655 14.0857C4.07965 13.941 3.70039 13.9817 3.41163 14.1924C3.12288 14.4032 2.96849 14.752 3.00663 15.1074C3.04477 15.4629 3.26965 15.771 3.59655 15.9157L11.5965 19.9157C11.8545 20.0299 12.1486 20.0299 12.4065 19.9157L20.4065 15.9157C20.6493 15.8084 20.8395 15.609 20.9352 15.3614Z"/>
</mask>
<g mask="url(#mask0)">
<rect x="-48" y="-48" width="120" height="120"/>
</g>
</svg>
