<svg width="24" height="24" viewBox="0 0 24 24" fill="currentColor" xmlns="http://www.w3.org/2000/svg">
<mask id="mask0" mask-type="alpha" maskUnits="userSpaceOnUse" x="3" y="2" width="19" height="20">
<path fill-rule="evenodd" clip-rule="evenodd" d="M5.00427 3C5.00427 2.44772 5.45199 2 6.00427 2H18.0043C18.5566 2 19.0043 2.44772 19.0043 3V14H20.0043C20.5566 14 21.0043 14.4477 21.0043 15V21C21.0043 21.5523 20.5566 22 20.0043 22H4C3.44771 22 3 21.5523 3 21V15C3 14.4477 3.44772 14 4 14H5.00427V3ZM5.00427 16H7.50427C7.50427 16 9.75427 18 12.0043 18C14.2543 18 16.5043 16 16.5043 16H19.0043V20H5.00427V16ZM7.00427 4H17.0043V14H16.0043C15.6168 14 15.3045 14.3002 14.9218 14.668C14.3166 15.2495 13.5357 16 12.0043 16C10.4728 16 9.6919 15.2495 9.08678 14.668C8.70407 14.3002 8.3917 14 8.00427 14H7.00427V4Z" fill="white"/>
</mask>
<g mask="url(#mask0)">
<rect x="-48" y="-48" width="120" height="120"/>
</g>
</svg>
