<svg width="24" height="24" viewBox="0 0 24 24" fill="currentColor" xmlns="http://www.w3.org/2000/svg">
<mask id="mask0" mask-type="alpha" maskUnits="userSpaceOnUse" x="4" y="6" width="16" height="12">
<path fill-rule="evenodd" clip-rule="evenodd" d="M4 7C4 6.44772 4.44772 6 5 6H19C19.5523 6 20 6.44772 20 7C20 7.55228 19.5523 8 19 8H5C4.44772 8 4 7.55228 4 7ZM12 17C12 16.4477 12.4477 16 13 16H19C19.5523 16 20 16.4477 20 17C20 17.5523 19.5523 18 19 18H13C12.4477 18 12 17.5523 12 17ZM9 11C8.44772 11 8 11.4477 8 12C8 12.5523 8.44771 13 9 13H19C19.5523 13 20 12.5523 20 12C20 11.4477 19.5523 11 19 11H9Z"/>
</mask>
<g mask="url(#mask0)">
<rect x="-48" y="-48" width="120" height="120"/>
</g>
</svg>
