<svg width="24" height="24" viewBox="0 0 24 24" fill="currentColor" xmlns="http://www.w3.org/2000/svg">
<mask id="mask0" mask-type="alpha" maskUnits="userSpaceOnUse" x="4" y="5" width="17" height="14">
<path fill-rule="evenodd" clip-rule="evenodd" d="M13.2836 7.24078C12.9907 6.94789 12.9907 6.47301 13.2836 6.18012C13.5765 5.88723 14.0514 5.88723 14.3443 6.18012L20.1149 11.9507C20.1497 11.9855 20.1497 12.042 20.1149 12.0768L19.4708 12.7209L19.1173 13.0744L14.3443 17.8474C14.0514 18.1403 13.5765 18.1403 13.2836 17.8474C12.9907 17.5545 12.9907 17.0796 13.2836 16.7867L17.3206 12.7498H4.75C4.33579 12.7498 4 12.414 4 11.9998C4 11.5856 4.33579 11.2498 4.75 11.2498H17.2926L13.2836 7.24078Z"/>
</mask>
<g mask="url(#mask0)">
<rect x="-48" y="-48" width="120" height="120"/>
</g>
</svg>
