<svg width="24" height="24" viewBox="0 0 24 24" fill="currentColor" xmlns="http://www.w3.org/2000/svg">
<mask id="mask0" mask-type="alpha" maskUnits="userSpaceOnUse" x="5" y="5" width="14" height="14">
<path fill-rule="evenodd" clip-rule="evenodd" d="M15.7391 14.6802C16.5294 13.6641 17 12.387 17 11C17 7.68629 14.3137 5 11 5C7.68629 5 5 7.68629 5 11C5 14.3137 7.68629 17 11 17C12.3865 17 13.6632 16.5297 14.6792 15.7399L17.4191 18.4797C17.7117 18.7724 18.1866 18.7712 18.4778 18.4771C18.7667 18.1853 18.7659 17.715 18.4759 17.4243L15.7391 14.6802ZM11 15.5C13.4853 15.5 15.5 13.4853 15.5 11C15.5 8.51472 13.4853 6.5 11 6.5C8.51472 6.5 6.5 8.51472 6.5 11C6.5 13.4853 8.51472 15.5 11 15.5Z" fill="white"/>
</mask>
<g mask="url(#mask0)">
<rect x="-48" y="-48" width="120" height="120"/>
</g>
</svg>
