<svg width="24" height="24" viewBox="0 0 24 24" fill="currentColor" xmlns="http://www.w3.org/2000/svg">
<mask id="mask0" mask-type="alpha" maskUnits="userSpaceOnUse" x="3" y="5" width="19" height="18">
<path fill-rule="evenodd" clip-rule="evenodd" d="M3 6C3 5.44772 3.44772 5 4 5H20C20.5523 5 21 5.44772 21 6V13C21 13.4142 20.6642 13.75 20.25 13.75C19.8358 13.75 19.5 13.4142 19.5 13V7.61516L12.6795 12.3909C12.4811 12.5298 12.2498 12.5867 12.0259 12.5686C11.802 12.5867 11.5708 12.5298 11.3724 12.3909L4.5 7.57883V17.5H10C10.4142 17.5 10.75 17.8358 10.75 18.25C10.75 18.6642 10.4142 19 10 19H4C3.44772 19 3 18.5523 3 18V6ZM4.5 6.51465L4.51026 6.5H4.5V6.51465ZM5.57444 6.5L12.0259 11.0174L18.4774 6.5H5.57444ZM16.5303 14.5303C16.8232 14.2374 17.2981 14.2374 17.591 14.5303L20.7801 17.7195L20.7805 17.7199L21.2613 18.2006C21.2752 18.2145 21.2808 18.2336 21.278 18.2517C21.2808 18.2697 21.2752 18.2888 21.2613 18.3027L17.591 21.973C17.2981 22.2659 16.8232 22.2659 16.5303 21.973C16.2374 21.6801 16.2374 21.2052 16.5303 20.9123L18.4426 19H13.75C13.3358 19 13 18.6642 13 18.25C13 17.8358 13.3358 17.5 13.75 17.5H18.4393L16.5303 15.591C16.2374 15.2981 16.2374 14.8232 16.5303 14.5303Z"/>
</mask>
<g mask="url(#mask0)">
<rect x="-48" y="-48" width="120" height="120"/>
</g>
</svg>
