<svg width="24" height="24" viewBox="0 0 24 24" fill="currentColor" xmlns="http://www.w3.org/2000/svg">
<mask id="mask0" mask-type="alpha" maskUnits="userSpaceOnUse" x="3" y="2" width="18" height="19">
<path fill-rule="evenodd" clip-rule="evenodd" d="M8 2C7.44772 2 7 2.44772 7 3C7 3.55228 7.44772 4 8 4H16C16.5523 4 17 3.55228 17 3C17 2.44772 16.5523 2 16 2H8ZM20 6H4C3.44772 6 3 6.44772 3 7C3 7.55228 3.44772 8 4 8H5V20C5 20.5523 5.44772 21 6 21H18C18.5523 21 19 20.5523 19 20V8H20C20.5523 8 21 7.55228 21 7C21 6.44772 20.5523 6 20 6ZM17 19H7V8H17V19ZM9 12V15C9 15.5523 9.44772 16 10 16C10.5523 16 11 15.5523 11 15V12C11 11.4477 10.5523 11 10 11C9.44772 11 9 11.4477 9 12ZM13 15V12C13 11.4477 13.4477 11 14 11C14.5523 11 15 11.4477 15 12V15C15 15.5523 14.5523 16 14 16C13.4477 16 13 15.5523 13 15Z" fill="white"/>
</mask>
<g mask="url(#mask0)">
<rect x="-48" y="-48" width="120" height="120"/>
</g>
</svg>
