<svg width="24" height="24" viewBox="0 0 24 24" fill="currentColor" xmlns="http://www.w3.org/2000/svg">
<mask id="mask0" mask-type="alpha" maskUnits="userSpaceOnUse" x="4" y="2" width="16" height="20">
<path fill-rule="evenodd" clip-rule="evenodd" d="M19.71 6.21L15.79 2.29C15.6037 2.10526 15.3523 2.0011 15.09 2H5C4.44772 2 4 2.44772 4 3V21C4 21.5523 4.44772 22 5 22H19C19.5523 22 20 21.5523 20 21V6.91C19.9989 6.64766 19.8947 6.39626 19.71 6.21ZM18 7.74421V20H6V4H14.2558C14.521 4 14.7754 4.10536 14.9629 4.29289L17.7071 7.03711C17.8946 7.22464 18 7.479 18 7.74421ZM15.6476 12.3424C15.2782 11.9731 14.6868 11.9502 14.29 12.29L13 13.59V10C13 9.44772 12.5523 9 12 9C11.4477 9 11 9.44772 11 10V13.59L9.7 12.29C9.30324 11.9502 8.71181 11.9731 8.34244 12.3424C7.97307 12.7118 7.95022 13.3032 8.29 13.7L11.29 16.7C11.68 17.0877 12.31 17.0877 12.7 16.7L15.7 13.7C16.0398 13.3032 16.0169 12.7118 15.6476 12.3424Z" fill="white"/>
</mask>
<g mask="url(#mask0)">
<rect x="-48" y="-48" width="120" height="120" />
</g>
</svg>
